<?xml version="1.0" encoding="UTF-8"?>
<!DOCTYPE svg PUBLIC "-//W3C//DTD SVG 1.1//EN" "http://www.w3.org/Graphics/SVG/1.1/DTD/svg11.dtd">
<svg version="1.1" xmlns="http://www.w3.org/2000/svg" xmlns:xlink="http://www.w3.org/1999/xlink" x="0" y="0" width="30" height="35" viewBox="0, 0, 30, 35">
  <g id="Layer_1">
    <path d="M15.5,14.5 L4.1,10.5" fill-opacity="0" stroke="#FFFFFF" stroke-width="2" stroke-linecap="round"/>
    <path d="M26.9,10.5 L15.5,14.5" fill-opacity="0" stroke="#FFFFFF" stroke-width="2" stroke-linecap="round"/>
    <g>
      <path d="M15.5,14.5 L26.9,10.5 L26.9,27.5 L15.5,32.5 L15.5,14.5 z" fill-opacity="0" stroke="#FFFFFF" stroke-width="2"/>
      <path d="M15.5,14.5 L26.9,10.5 L26.9,27.5 L15.5,32.5 L15.5,14.5 z" fill-opacity="0" stroke="#FFFFFF" stroke-width="2" stroke-linecap="round" stroke-linejoin="round"/>
    </g>
    <g>
      <path d="M15.5,14.5 L4.1,10.5 L4.1,27.5 L15.5,32.5 L15.5,14.5 z" fill-opacity="0" stroke="#FFFFFF" stroke-width="2"/>
      <path d="M15.5,14.5 L4.1,10.5 L4.1,27.5 L15.5,32.5 L15.5,14.5 z" fill-opacity="0" stroke="#FFFFFF" stroke-width="2" stroke-linecap="round" stroke-linejoin="round"/>
    </g>
    <g>
      <path d="M4.1,10.5 L16.037,6.971 L26.9,10.5 L15.5,14.5 L4.1,10.5 z" fill-opacity="0" stroke="#FFFFFF" stroke-width="2"/>
      <path d="M4.1,10.5 L16.037,6.971 L26.9,10.5 L15.5,14.5 L4.1,10.5 z" fill-opacity="0" stroke="#FFFFFF" stroke-width="2" stroke-linejoin="round"/>
    </g>
    <path d="M15.5,10.5 C15.5,5.971 17.112,2.3 19.1,2.3" fill-opacity="0" stroke="#FFFFFF" stroke-width="2" stroke-linecap="round"/>
    <g>
      <g>
        <path d="M19.2,4.3 C18.592,4.3 18.1,3.808 18.1,3.2 C18.1,2.592 18.592,2.1 19.2,2.1 C19.808,2.1 20.3,2.592 20.3,3.2 C20.3,3.808 19.808,4.3 19.2,4.3 z" fill="#2E240A"/>
        <path d="M19.2,4.3 C18.592,4.3 18.1,3.808 18.1,3.2 C18.1,2.592 18.592,2.1 19.2,2.1 C19.808,2.1 20.3,2.592 20.3,3.2 C20.3,3.808 19.808,4.3 19.2,4.3 z" fill-opacity="0" stroke="#FFFFFF" stroke-width="2"/>
      </g>
      <path d="M19.2,4.3 C18.592,4.3 18.1,3.808 18.1,3.2 C18.1,2.592 18.592,2.1 19.2,2.1 C19.808,2.1 20.3,2.592 20.3,3.2 C20.3,3.808 19.808,4.3 19.2,4.3 z" fill-opacity="0" stroke="#FFFFFF" stroke-width="2" stroke-linecap="round"/>
    </g>
  </g>
</svg>
