<?xml version="1.0" encoding="UTF-8"?>
<!DOCTYPE svg PUBLIC "-//W3C//DTD SVG 1.1//EN" "http://www.w3.org/Graphics/SVG/1.1/DTD/svg11.dtd">
<svg version="1.1" xmlns="http://www.w3.org/2000/svg" xmlns:xlink="http://www.w3.org/1999/xlink" x="0" y="0" width="110" height="135" viewBox="0, 0, 110, 135">
  <g id="Layer_1">
    <g>
      <path d="M5.5,31.5 L105.5,31.5 L105.5,131.5 L5.5,131.5 L5.5,31.5 z" fill="#A05E2E"/>
      <path d="M5.5,31.5 L105.5,31.5 L105.5,131.5 L5.5,131.5 L5.5,31.5 z" fill-opacity="0" stroke="#000000" stroke-width="2"/>
    </g>
    <g>
      <path d="M43.93,31.5 L67.07,31.5 L67.07,131.5 L43.93,131.5 L43.93,31.5 z" fill="#8BB562"/>
      <path d="M43.93,31.5 L67.07,31.5 L67.07,131.5 L43.93,131.5 L43.93,31.5 z" fill-opacity="0" stroke="#000000" stroke-width="2"/>
    </g>
    <path d="M76.167,64.167 L98.833,64.167" fill-opacity="0" stroke="#000000" stroke-width="2"/>
    <g>
      <path d="M80.833,60.167 L80.833,50.633" fill-opacity="0" stroke="#000000" stroke-width="2"/>
      <path d="M84.433,50.633 L80.833,41.033 L77.233,50.633 z" fill="#000000" fill-opacity="1" stroke="#000000" stroke-width="2" stroke-opacity="1"/>
    </g>
    <g>
      <path d="M92.5,60.5 L92.5,50.967" fill-opacity="0" stroke="#000000" stroke-width="2"/>
      <path d="M96.1,50.967 L92.5,41.367 L88.9,50.967 z" fill="#000000" fill-opacity="1" stroke="#000000" stroke-width="2" stroke-opacity="1"/>
    </g>
    <g>
      <path d="M56.793,30.833 C56.793,15.922 34.873,3.833 7.833,3.833 C7.833,18.745 29.753,30.833 56.793,30.833" fill="#8BB562"/>
      <path d="M56.793,30.833 C56.793,15.922 34.873,3.833 7.833,3.833 C7.833,18.745 29.753,30.833 56.793,30.833" fill-opacity="0" stroke="#000000" stroke-width="2"/>
    </g>
  </g>
</svg>
